HIERARCHY
ROOT mixamorig:Hips
{
	OFFSET 0.000000 77.627144 7.190781
	CHANNELS 6 Xposition Yposition Zposition Xrotation Yrotation Zrotation
	JOINT mixamorig:Spine
	{
		OFFSET 0.000000 14.685707 -1.734714
		CHANNELS 3 Xrotation Yrotation Zrotation
		JOINT mixamorig:Spine1
		{
			OFFSET 0.000000 17.133331 -2.023833
			CHANNELS 3 Xrotation Yrotation Zrotation
			JOINT mixamorig:Spine2
			{
				OFFSET 0.000000 19.580948 -2.312953
				CHANNELS 3 Xrotation Yrotation Zrotation
				JOINT mixamorig:Neck
				{
					OFFSET 0.000000 22.028564 -2.602070
					CHANNELS 3 Xrotation Yrotation Zrotation
					JOINT mixamorig:Head
					{
						OFFSET 0.000000 7.772293 1.167654
						CHANNELS 3 Xrotation Yrotation Zrotation
						JOINT mixamorig:HeadTop_End
						{
							OFFSET 0.000000 26.518158 3.983897
							CHANNELS 3 Xrotation Yrotation Zrotation
							End Site
							{
								OFFSET 0.000000 26.815750 0.000000
							}
						}
					}
				}
				JOINT mixamorig:LeftShoulder
				{
					OFFSET 11.646637 18.513367 -2.583829
					CHANNELS 3 Xrotation Yrotation Zrotation
					JOINT mixamorig:LeftArm
					{
						OFFSET 23.494797 -6.787735 0.036483
						CHANNELS 3 Xrotation Yrotation Zrotation
						JOINT mixamorig:LeftForeArm
						{
							OFFSET 22.628841 -2.236465 0.895561
							CHANNELS 3 Xrotation Yrotation Zrotation
							JOINT mixamorig:LeftHand
							{
								OFFSET 32.235813 0.214081 0.341628
								CHANNELS 3 Xrotation Yrotation Zrotation
								JOINT mixamorig:LeftHandThumb1
								{
									OFFSET 4.043732 -2.301453 4.675424
									CHANNELS 3 Xrotation Yrotation Zrotation
									JOINT mixamorig:LeftHandThumb2
									{
										OFFSET 3.235001 -1.841141 3.740334
										CHANNELS 3 Xrotation Yrotation Zrotation
										JOINT mixamorig:LeftHandThumb3
										{
											OFFSET 4.136284 -1.355438 2.884997
											CHANNELS 3 Xrotation Yrotation Zrotation
											JOINT mixamorig:LeftHandThumb4
											{
												OFFSET 3.443222 -1.440781 1.895251
												CHANNELS 3 Xrotation Yrotation Zrotation
												End Site
												{
													OFFSET 3.082619 -1.455811 2.429330
												}
											}
										}
									}
								}
								JOINT mixamorig:LeftHandIndex1
								{
									OFFSET 12.534279 0.552322 5.370454
									CHANNELS 3 Xrotation Yrotation Zrotation
									JOINT mixamorig:LeftHandIndex2
									{
										OFFSET 4.462021 -0.042068 -0.222766
										CHANNELS 3 Xrotation Yrotation Zrotation
										JOINT mixamorig:LeftHandIndex3
										{
											OFFSET 4.426414 -0.140015 -0.221126
											CHANNELS 3 Xrotation Yrotation Zrotation
											JOINT mixamorig:LeftHandIndex4
											{
												OFFSET 3.584976 -0.033737 -0.180877
												CHANNELS 3 Xrotation Yrotation Zrotation
												End Site
												{
													OFFSET 3.584984 -0.033707 -0.180676
												}
											}
										}
									}
								}
								JOINT mixamorig:LeftHandMiddle1
								{
									OFFSET 12.067444 0.830978 1.411757
									CHANNELS 3 Xrotation Yrotation Zrotation
									JOINT mixamorig:LeftHandMiddle2
									{
										OFFSET 5.488625 0.110443 -0.140360
										CHANNELS 3 Xrotation Yrotation Zrotation
										JOINT mixamorig:LeftHandMiddle3
										{
											OFFSET 5.193268 -0.285706 -0.132956
											CHANNELS 3 Xrotation Yrotation Zrotation
											JOINT mixamorig:LeftHandMiddle4
											{
												OFFSET 4.443779 -0.316895 -0.113542
												CHANNELS 3 Xrotation Yrotation Zrotation
												End Site
												{
													OFFSET 4.443962 -0.316620 -0.107084
												}
											}
										}
									}
								}
								JOINT mixamorig:LeftHandRing1
								{
									OFFSET 12.202324 0.602158 -2.428782
									CHANNELS 3 Xrotation Yrotation Zrotation
									JOINT mixamorig:LeftHandRing2
									{
										OFFSET 4.681709 0.293594 -0.070412
										CHANNELS 3 Xrotation Yrotation Zrotation
										JOINT mixamorig:LeftHandRing3
										{
											OFFSET 4.517784 0.001785 -0.067170
											CHANNELS 3 Xrotation Yrotation Zrotation
											JOINT mixamorig:LeftHandRing4
											{
												OFFSET 3.536186 -0.473984 -0.050865
												CHANNELS 3 Xrotation Yrotation Zrotation
												End Site
												{
													OFFSET 3.536438 -0.473450 -0.036327
												}
											}
										}
									}
								}
								JOINT mixamorig:LeftHandPinky1
								{
									OFFSET 11.261032 -0.021225 -5.740205
									CHANNELS 3 Xrotation Yrotation Zrotation
									JOINT mixamorig:LeftHandPinky2
									{
										OFFSET 4.446136 0.226913 -0.056313
										CHANNELS 3 Xrotation Yrotation Zrotation
										JOINT mixamorig:LeftHandPinky3
										{
											OFFSET 3.536148 0.035980 -0.044635
											CHANNELS 3 Xrotation Yrotation Zrotation
											JOINT mixamorig:LeftHandPinky4
											{
												OFFSET 2.822449 0.069366 -0.035670
												CHANNELS 3 Xrotation Yrotation Zrotation
												End Site
												{
													OFFSET 2.822449 0.069397 -0.035034
												}
											}
										}
									}
								}
							}
						}
					}
				}
				JOINT mixamorig:RightShoulder
				{
					OFFSET -11.646637 18.513367 -2.620312
					CHANNELS 3 Xrotation Yrotation Zrotation
					JOINT mixamorig:RightArm
					{
						OFFSET -23.494804 -6.787735 -0.036485
						CHANNELS 3 Xrotation Yrotation Zrotation
						JOINT mixamorig:RightForeArm
						{
							OFFSET -22.628826 -2.236481 0.960591
							CHANNELS 3 Xrotation Yrotation Zrotation
							JOINT mixamorig:RightHand
							{
								OFFSET -32.235806 0.214096 0.317908
								CHANNELS 3 Xrotation Yrotation Zrotation
								JOINT mixamorig:RightHandThumb1
								{
									OFFSET -4.056908 -2.304855 4.721249
									CHANNELS 3 Xrotation Yrotation Zrotation
									JOINT mixamorig:RightHandThumb2
									{
										OFFSET -3.245529 -1.843887 3.777003
										CHANNELS 3 Xrotation Yrotation Zrotation
										JOINT mixamorig:RightHandThumb3
										{
											OFFSET -4.153908 -1.359879 2.907515
											CHANNELS 3 Xrotation Yrotation Zrotation
											JOINT mixamorig:RightHandThumb4
											{
												OFFSET -3.491310 -1.375549 1.529044
												CHANNELS 3 Xrotation Yrotation Zrotation
												End Site
												{
													OFFSET -3.035126 -1.400162 2.290608
												}
											}
										}
									}
								}
								JOINT mixamorig:RightHandIndex1
								{
									OFFSET -12.331047 0.757294 5.317495
									CHANNELS 3 Xrotation Yrotation Zrotation
									JOINT mixamorig:RightHandIndex2
									{
										OFFSET -4.758568 -0.224289 -0.035605
										CHANNELS 3 Xrotation Yrotation Zrotation
										JOINT mixamorig:RightHandIndex3
										{
											OFFSET -4.415932 -0.181503 -0.033052
											CHANNELS 3 Xrotation Yrotation Zrotation
											JOINT mixamorig:RightHandIndex4
											{
												OFFSET -3.678474 0.414856 -0.027373
												CHANNELS 3 Xrotation Yrotation Zrotation
												End Site
												{
													OFFSET -3.678375 0.414001 -0.046045
												}
											}
										}
									}
								}
								JOINT mixamorig:RightHandMiddle1
								{
									OFFSET -12.051239 0.663742 1.548264
									CHANNELS 3 Xrotation Yrotation Zrotation
									JOINT mixamorig:RightHandMiddle2
									{
										OFFSET -5.374817 0.301971 -0.166537
										CHANNELS 3 Xrotation Yrotation Zrotation
										JOINT mixamorig:RightHandMiddle3
										{
											OFFSET -5.310471 -0.301758 -0.164593
											CHANNELS 3 Xrotation Yrotation Zrotation
											JOINT mixamorig:RightHandMiddle4
											{
												OFFSET -4.485832 -0.342514 -0.139207
												CHANNELS 3 Xrotation Yrotation Zrotation
												End Site
												{
													OFFSET -4.486198 -0.342010 -0.127963
												}
											}
										}
									}
								}
								JOINT mixamorig:RightHandRing1
								{
									OFFSET -12.195183 0.742325 -2.381488
									CHANNELS 3 Xrotation Yrotation Zrotation
									JOINT mixamorig:RightHandRing2
									{
										OFFSET -4.583191 0.034424 -0.012763
										CHANNELS 3 Xrotation Yrotation Zrotation
										JOINT mixamorig:RightHandRing3
										{
											OFFSET -4.612793 0.026199 -0.012632
											CHANNELS 3 Xrotation Yrotation Zrotation
											JOINT mixamorig:RightHandRing4
											{
												OFFSET -3.314957 -0.541855 -0.006643
												CHANNELS 3 Xrotation Yrotation Zrotation
												End Site
												{
													OFFSET -3.315063 -0.541092 0.010116
												}
											}
										}
									}
								}
								JOINT mixamorig:RightHandPinky1
								{
									OFFSET -11.332825 -0.054398 -5.574547
									CHANNELS 3 Xrotation Yrotation Zrotation
									JOINT mixamorig:RightHandPinky2
									{
										OFFSET -4.462639 0.300003 -0.206312
										CHANNELS 3 Xrotation Yrotation Zrotation
										JOINT mixamorig:RightHandPinky3
										{
											OFFSET -3.493774 0.049591 -0.161451
											CHANNELS 3 Xrotation Yrotation Zrotation
											JOINT mixamorig:RightHandPinky4
											{
												OFFSET -2.793701 0.056946 -0.129098
												CHANNELS 3 Xrotation Yrotation Zrotation
												End Site
												{
													OFFSET -2.793793 0.057053 -0.126857
												}
											}
										}
									}
								}
							}
						}
					}
				}
			}
		}
	}
	JOINT mixamorig:LeftUpLeg
	{
		OFFSET 13.580879 -8.149223 -1.796077
		CHANNELS 3 Xrotation Yrotation Zrotation
		JOINT mixamorig:LeftLeg
		{
			OFFSET 3.676140 -35.802425 -2.676071
			CHANNELS 3 Xrotation Yrotation Zrotation
			JOINT mixamorig:LeftFoot
			{
				OFFSET -0.369089 -26.709160 -2.057140
				CHANNELS 3 Xrotation Yrotation Zrotation
				JOINT mixamorig:LeftToeBase
				{
					OFFSET -1.192477 -6.581660 13.403662
					CHANNELS 3 Xrotation Yrotation Zrotation
					JOINT mixamorig:LeftToe_End
					{
						OFFSET -0.351336 -0.163913 5.937977
						CHANNELS 3 Xrotation Yrotation Zrotation
						End Site
						{
							OFFSET -0.351338 -0.163913 5.937977
						}
					}
				}
			}
		}
	}
	JOINT mixamorig:RightUpLeg
	{
		OFFSET -13.580879 -8.149223 -2.255285
		CHANNELS 3 Xrotation Yrotation Zrotation
		JOINT mixamorig:RightLeg
		{
			OFFSET -3.676140 -35.802425 -2.316821
			CHANNELS 3 Xrotation Yrotation Zrotation
			JOINT mixamorig:RightFoot
			{
				OFFSET 0.369059 -26.709040 -2.090143
				CHANNELS 3 Xrotation Yrotation Zrotation
				JOINT mixamorig:RightToeBase
				{
					OFFSET 1.192393 -6.582436 13.372205
					CHANNELS 3 Xrotation Yrotation Zrotation
					JOINT mixamorig:RightToe_End
					{
						OFFSET 0.351307 -0.164255 5.913618
						CHANNELS 3 Xrotation Yrotation Zrotation
						End Site
						{
							OFFSET 0.351309 -0.164255 5.913618
						}
					}
				}
			}
		}
	}
}
MOTION
Frames: 6
Frame Time: 0.016667
1.549166 75.557320 -6.439429 -0.666314 -46.458281 1.211191 23.739986 -9.716304 1.930058 -2.749016 -0.860324 -4.634843 -2.819524 -1.063361 -4.554117 -2.101153 -1.951471 3.352984 -0.116017 -6.238536 7.499595 0.000001 0.000001 -0.000001 0.820914 -7.845232 2.374774 10.787743 -71.183460 -20.919466 -2.247115 -23.020055 -6.476570 16.785854 0.257552 -23.603042 19.950935 21.700534 14.357360 -15.028462 6.168154 -13.549303 -4.844263 -4.083316 5.619832 -0.000002 0.000000 -0.000003 -0.541843 -6.900445 -27.130444 -0.218034 0.478964 -4.970899 -0.337941 0.465587 -7.508870 0.000000 0.000000 0.000002 0.142875 -5.588673 -29.872160 -0.112917 0.838903 -6.965447 -0.121522 0.714660 -8.568787 0.000001 0.000000 0.000001 0.598164 -4.907739 -35.158641 -0.096189 1.125341 -11.829462 0.031501 1.007136 -6.082931 -0.000001 -0.000001 0.000001 3.151759 -1.172018 -38.372460 0.136976 -2.802837 -15.207744 -0.050052 1.270235 -18.054685 -0.000001 0.000000 0.000003 4.171819 25.423153 0.664229 38.277794 26.122161 32.948576 -25.939667 77.492396 26.957073 11.766708 -2.037178 10.342956 -1.176125 -12.281133 -11.371931 9.582539 -14.746829 14.345477 -6.083596 10.687327 -4.186507 -0.000001 0.000004 0.000002 0.287112 5.683819 24.706083 0.174847 -1.435870 21.543031 0.052185 -1.263092 26.923711 0.000002 0.000002 0.000001 -0.010120 7.368132 25.927642 -0.306105 -1.430349 16.447364 -0.299514 -1.243047 18.623879 -0.000000 -0.000001 -0.000002 0.483793 5.738174 24.331193 0.251864 -1.546169 24.106613 0.217383 -1.371128 11.261123 0.000002 -0.000001 -0.000002 -0.439277 7.518134 35.336738 -0.762833 -1.596720 21.530699 -0.757131 -1.383058 21.294044 0.000002 0.000000 0.000002 -7.693047 -10.126925 2.822985 54.994832 -7.089898 -11.168687 -2.910631 29.416904 3.306278 -27.959338 3.503382 -11.213129 -0.000001 -0.000001 -0.000002 -25.459709 12.193819 3.267769 38.265544 7.016103 -3.823409 -10.430017 -4.725556 -3.909859 -5.307159 -0.000001 0.000008 0.000001 0.000000 0.000001 
0.509811 75.766655 -6.538632 -2.519926 -50.016738 -1.623247 23.532030 -7.954709 1.009538 -2.443502 -0.637614 -4.395339 -2.494745 -0.828890 -4.336285 -2.023410 -1.833206 3.252240 0.626002 -5.733634 7.600364 -0.000001 -0.000001 -0.000000 0.799614 -7.277544 1.307019 11.724500 -67.923704 -24.514912 -2.217671 -22.765855 -6.465474 13.430748 3.041934 -22.338368 19.950942 21.700549 14.357372 -15.028458 6.168159 -13.549305 -4.844263 -4.083318 5.619830 -0.000001 0.000000 -0.000003 -0.551545 -6.798655 -28.266048 -0.275337 0.593758 -6.408764 -0.393206 0.583314 -8.946619 0.000000 -0.000002 -0.000001 0.161916 -5.485916 -31.195742 -0.130348 0.955573 -8.497268 -0.133775 0.830625 -10.091204 -0.000001 -0.000000 -0.000003 0.643129 -4.789400 -36.860683 -0.094100 1.251576 -13.553648 0.037832 1.127809 -7.780441 0.000001 -0.000002 -0.000003 3.351015 -1.120083 -40.559856 0.149952 -2.672233 -16.984797 -0.032407 1.400574 -19.832803 -0.000000 0.000002 -0.000003 4.164222 24.714637 1.066345 33.251290 27.673377 37.346405 -45.033131 82.178282 45.763511 9.880943 -2.094340 9.181036 -1.176122 -12.281118 -11.371917 9.582539 -14.746829 14.345475 -6.083593 10.687329 -4.186510 -0.000000 -0.000003 0.000005 0.256217 5.765996 23.430459 0.158462 -1.383083 20.738124 0.045294 -1.235875 26.521365 -0.000000 0.000001 0.000001 -0.004865 7.437368 24.924940 -0.298634 -1.380648 15.688514 -0.296900 -1.215070 18.196046 0.000000 0.000000 0.000001 0.461414 5.796285 23.377226 0.236737 -1.506861 23.459079 0.210039 -1.349354 10.905674 -0.000000 -0.000002 -0.000001 -0.430265 7.604690 34.205014 -0.752134 -1.562819 21.057227 -0.751657 -1.366060 21.057280 -0.000001 0.000001 0.000001 -10.740536 -8.026428 4.177942 64.079366 -7.449011 -10.712903 -2.918184 27.057431 5.234493 -19.164191 2.723807 -9.967663 -0.000002 0.000002 -0.000002 -23.792098 10.205286 4.706332 35.476003 7.981588 -2.826110 -8.051349 -1.494115 -4.842795 -5.258520 -0.000010 0.000006 0.000001 0.000000 0.000001 
-0.501545 75.891586 -6.601120 -4.780709 -53.575020 -4.915696 23.084725 -6.100032 0.430219 -2.045337 -0.404218 -4.336020 -2.081503 -0.587502 -4.298051 -1.893125 -1.771127 3.327818 1.332834 -5.273630 7.677530 0.000001 0.000001 0.000000 0.779155 -6.731385 0.348846 13.358231 -64.331571 -27.306494 -2.224241 -22.822705 -6.467949 10.501462 6.147782 -19.327972 19.950945 21.700530 14.357377 -15.028458 6.168155 -13.549307 -4.844263 -4.083311 5.619830 0.000001 0.000000 -0.000001 -0.555292 -6.751813 -28.788018 -0.317934 0.683973 -7.526764 -0.434122 0.675785 -10.064509 -0.000000 0.000001 0.000000 0.174790 -5.423108 -32.007827 -0.142117 1.049649 -9.728264 -0.141510 0.925469 -11.333668 0.000001 0.000003 0.000005 0.677223 -4.706148 -38.070218 -0.089259 1.359741 -15.032092 0.046227 1.232421 -9.254955 0.000000 -0.000001 -0.000002 3.507254 -1.084993 -42.260832 0.165802 -2.549926 -18.654929 -0.012113 1.522544 -21.504123 -0.000000 -0.000002 0.000002 4.170267 23.843470 1.642672 27.684191 28.863512 41.706351 -90.998399 84.440249 91.447859 7.543825 -2.970744 9.253596 -1.176146 -12.281109 -11.371912 9.582542 -14.746821 14.345479 -6.083593 10.687330 -4.186503 0.000002 -0.000001 0.000000 0.230518 5.838942 22.306998 0.140932 -1.323528 19.833677 0.037767 -1.205239 26.069215 -0.000001 -0.000002 -0.000001 0.001240 7.503032 23.972963 -0.289508 -1.325211 14.839698 -0.293589 -1.182767 17.701593 0.000004 0.000004 0.000003 0.439119 5.857263 22.382663 0.219143 -1.459412 22.681059 0.201141 -1.322271 10.464324 0.000001 -0.000002 -0.000001 -0.418082 7.701733 32.932905 -0.737072 -1.516573 20.409912 -0.744067 -1.342904 20.733623 0.000001 -0.000001 0.000001 -13.976853 -6.615924 5.408389 72.727895 -7.336789 -10.148601 -3.413524 23.330985 7.058103 -6.855394 0.506306 -4.429120 0.000004 -0.000002 0.000003 -21.935899 8.648148 6.290640 32.863209 8.338779 -1.913378 -5.843667 1.903715 -5.791317 -5.229096 -0.000014 0.000004 0.000002 -0.000001 -0.000000 
-1.426662 75.879677 -6.641141 -7.517909 -57.026216 -8.694394 22.492141 -4.187994 0.167921 -1.609576 -0.165247 -4.410570 -1.632514 -0.344288 -4.391417 -1.670285 -1.752139 3.549214 2.016098 -4.845287 7.721369 -0.000000 0.000003 -0.000000 0.759159 -6.201403 -0.485267 15.035582 -60.539546 -29.790686 -2.242352 -22.979014 -6.474748 7.860504 9.226280 -14.761680 19.950965 21.700541 14.357368 -15.028460 6.168162 -13.549302 -4.844266 -4.083310 5.619837 -0.000000 0.000004 -0.000003 -0.554535 -6.761680 -28.678110 -0.345285 0.744472 -8.270817 -0.460365 0.737772 -10.808499 -0.000003 -0.000002 -0.000002 0.179370 -5.401782 -32.284129 -0.149322 1.117506 -10.614215 -0.145889 0.995607 -12.251228 0.000002 0.000002 0.000005 0.697436 -4.659043 -38.759292 -0.083537 1.444501 -16.192413 0.054878 1.315760 -10.431941 0.000003 0.000004 0.000001 3.611752 -1.064204 -43.392916 0.182353 -2.444896 -20.094355 0.008217 1.627153 -22.944815 -0.000001 0.000000 0.000001 4.203459 22.906622 2.355122 21.682012 29.497664 46.003790 -134.938337 82.161916 135.116100 5.030715 -4.968164 10.106988 -1.176134 -12.281129 -11.371929 9.582544 -14.746831 14.345479 -6.083593 10.687326 -4.186507 -0.000002 0.000002 0.000002 0.212522 5.892881 21.480851 0.124274 -1.263349 18.923970 0.030445 -1.174342 25.614425 0.000000 -0.000001 0.000002 0.007119 7.557156 23.186827 -0.279414 -1.269202 13.979896 -0.289866 -1.148983 17.184034 0.000002 0.000002 -0.000001 0.419356 5.914265 21.458248 0.200575 -1.407040 21.826865 0.191284 -1.291483 9.964033 0.000004 0.000000 0.000000 -0.403655 7.799016 31.653067 -0.717603 -1.459466 19.606336 -0.734480 -1.314189 20.331805 0.000003 0.000002 0.000001 -17.401225 -6.112443 6.375323 80.505985 -7.266817 -10.030199 -4.478229 18.914255 8.980468 0.094797 -0.000016 0.000002 -0.000000 0.000000 -0.000002 -20.150520 7.596280 8.014872 30.845199 8.474668 -1.218518 -4.113419 4.961933 -6.666125 -5.220089 0.000004 0.000008 0.000001 -0.000001 0.000001 
-2.287247 75.821426 -6.664501 -10.762560 -60.271495 -12.951639 21.861516 -2.273724 0.179214 -1.202998 0.074548 -4.563481 -1.212547 -0.103506 -4.560117 -1.326377 -1.757957 3.865520 2.684475 -4.439002 7.723017 0.000001 -0.000002 -0.000000 0.739563 -5.682349 -1.186765 16.376734 -56.627756 -32.270807 -2.253917 -23.078581 -6.479162 5.317126 12.045142 -9.057429 19.950945 21.700541 14.357382 -15.028460 6.168152 -13.549306 -4.844266 -4.083316 5.619832 -0.000002 -0.000003 -0.000001 -0.548937 -6.827989 -27.939215 -0.357610 0.772398 -8.612834 -0.472140 0.766367 -11.150485 -0.000004 0.000002 0.000000 0.174722 -5.423477 -32.003162 -0.153061 1.157126 -11.131165 -0.148024 1.039144 -12.820158 0.000000 -0.000003 -0.000002 0.701883 -4.648862 -38.908610 -0.078541 1.503200 -16.996859 0.062091 1.375167 -11.272832 0.000000 0.000001 -0.000000 3.659921 -1.055347 -43.913349 0.197035 -2.363536 -21.213572 0.025847 1.708123 -24.065156 -0.000001 -0.000001 -0.000001 4.270084 22.017246 3.138987 15.350579 29.420323 50.203502 -152.630604 78.020506 152.552330 2.825613 -8.086569 11.005485 -1.176129 -12.281131 -11.371930 9.582543 -14.746829 14.345477 -6.083590 10.687325 -4.186508 -0.000002 0.000007 0.000005 0.203186 5.922035 21.035878 0.110367 -1.210145 18.122888 0.024203 -1.147099 25.213928 0.000001 -0.000002 -0.000001 0.011540 7.593782 22.653917 -0.269596 -1.218742 13.203720 -0.286082 -1.117444 16.700246 -0.000000 0.000001 -0.000002 0.404127 5.960327 20.714738 0.182930 -1.354706 20.977861 0.181452 -1.259761 9.450237 0.000001 0.000000 -0.000002 -0.389100 7.884425 30.525710 -0.694795 -1.395566 18.703290 -0.723458 -1.282018 19.880235 -0.000001 0.000001 -0.000000 -20.959713 -6.368514 6.940752 86.808924 -7.156543 -10.392298 -5.611492 14.013847 10.755857 -0.000176 0.000001 -0.000007 0.000001 -0.000002 -0.000003 -18.334227 7.066222 9.837117 29.025176 8.587296 -0.870128 -2.693227 7.451591 -7.282109 -5.182064 0.000007 0.000008 0.000001 0.000001 0.000000 
-3.073998 75.718552 -6.676346 -14.538440 -63.246896 -17.669616 21.305815 -0.410183 0.392721 -0.891886 0.311124 -4.743373 -0.886689 0.131646 -4.753051 -0.851954 -1.770507 4.218846 3.334717 -4.054885 7.680121 0.000000 0.000003 -0.000001 0.719966 -5.170523 -1.750005 17.261881 -52.643003 -34.871264 -2.250375 -23.048127 -6.477794 2.680857 14.459454 -2.816311 19.950943 21.700536 14.357360 -15.028460 6.168158 -13.549307 -4.844262 -4.083315 5.619835 -0.000000 0.000006 -0.000001 -0.536698 -6.947306 -26.606713 -0.354999 0.766513 -8.540834 -0.469688 0.760348 -11.078507 -0.000001 -0.000001 -0.000001 0.161310 -5.488984 -31.156318 -0.153944 1.167209 -11.262543 -0.148699 1.054694 -13.023520 -0.000003 -0.000001 0.000001 0.689824 -4.676576 -38.502381 -0.075558 1.534474 -17.426092 0.066652 1.409433 -11.758403 0.000001 -0.000001 -0.000004 3.649756 -1.057175 -43.803786 0.207663 -2.309561 -21.958498 0.038466 1.761834 -24.810877 -0.000001 0.000004 -0.000002 4.368615 21.285282 3.917620 8.800505 28.532769 54.230937 -160.319867 73.833163 160.009844 1.366735 -11.963396 11.227928 -1.176131 -12.281128 -11.371950 9.582544 -14.746829 14.345477 -6.083594 10.687323 -4.186506 0.000000 0.000000 0.000004 0.201628 5.926985 20.960092 0.100662 -1.170871 17.533806 0.019729 -1.127032 24.919431 -0.000000 -0.000000 0.000002 0.013731 7.610950 22.403910 -0.261466 -1.179501 12.598391 -0.282835 -1.091846 16.307423 -0.000002 -0.000001 -0.000001 0.394567 5.990409 20.230860 0.167933 -1.308256 20.227725 0.172696 -1.230672 8.980005 0.000002 0.000001 -0.000004 -0.377327 7.947025 29.696556 -0.670836 -1.331678 17.794909 -0.712119 -1.249743 19.426033 -0.000001 0.000001 0.000002 -24.748554 -7.087507 6.997028 91.400881 -7.008335 -11.120614 -6.429025 9.155360 12.120126 -0.000174 0.000014 -0.000004 0.000001 -0.000001 -0.000000 -16.612837 7.048795 11.666848 27.442247 8.654779 -0.831986 -1.636505 9.427284 -7.524855 -5.073738 -0.000002 0.000005 0.000001 -0.000001 0.000001 
